<svg width="217" height="97" viewBox="0 0 217 97" fill="none" xmlns="http://www.w3.org/2000/svg">
<g clip-path="url(#clip0_4_180)">
<path fill-rule="evenodd" clip-rule="evenodd" d="M82.7175 76.6602V74.7351H77.8316V76.6602H77.2609V72.5303H77.8316V74.321H82.7175V72.5303H83.2815V76.6602H82.7175Z" fill="#201C26"/>
<path fill-rule="evenodd" clip-rule="evenodd" d="M85.2032 76.6602V72.5303H90.0699V72.9421H85.765V74.321H89.9562V74.7295H85.765V76.2461H90.0699V76.6602H85.2032Z" fill="#201C26"/>
<path fill-rule="evenodd" clip-rule="evenodd" d="M99.9464 74.8391V74.3246C99.9464 73.3429 99.46 72.8487 97.9188 72.8487H96.2414V72.4819H95.6695V72.8487H94.0124C92.4611 72.8487 91.9747 73.2605 91.9747 74.3246V74.8391C91.9747 75.8897 92.5241 76.253 94.0124 76.253H95.6695V76.6592H96.2414V76.253H97.9188C99.3981 76.253 99.9464 75.9089 99.9464 74.8391ZM99.3733 74.8391C99.3733 75.6347 98.9894 75.8445 97.9188 75.8445H96.2414V73.2616H97.9188C98.9354 73.2616 99.3733 73.5009 99.3733 74.302V74.8391ZM95.6695 75.8445H94.0124C92.9407 75.8445 92.532 75.6347 92.532 74.8335V74.284C92.532 73.4941 92.9801 73.2616 94.0124 73.2616H95.6695V75.8445Z" fill="#201C26"/>
<path fill-rule="evenodd" clip-rule="evenodd" d="M104.294 72.9421V76.6602H104.863V72.9421H107.55V72.5303H101.627V72.9421H104.294Z" fill="#201C26"/>
<path fill-rule="evenodd" clip-rule="evenodd" d="M114.722 76.6605V72.5317H111.018C109.651 72.5317 109.087 72.8714 109.087 73.8102C109.087 74.5865 109.651 74.9488 110.729 74.9488L108.859 76.6617H109.651L111.41 74.9488H114.149V76.6617H114.722V76.6605ZM114.149 74.5403H110.839C109.959 74.5403 109.652 74.4252 109.652 73.8102C109.652 73.1693 109.974 72.9425 110.783 72.9425H114.149V74.5403Z" fill="#201C26"/>
<path fill-rule="evenodd" clip-rule="evenodd" d="M122.247 76.6602V74.7351H117.364V76.6602H116.796V72.5303H117.364V74.321H122.247V72.5303H122.818V76.6602H122.247Z" fill="#201C26"/>
<path fill-rule="evenodd" clip-rule="evenodd" d="M130.896 76.6605L128.048 72.5317H127.173L124.327 76.6605H124.955L125.662 75.6247H129.528L130.229 76.6605H130.896ZM129.231 75.2026H125.971L127.597 72.8274L129.231 75.2026Z" fill="#201C26"/>
<path fill-rule="evenodd" clip-rule="evenodd" d="M137.391 76.6602V74.9473H134.653L132.884 76.6602H132.104L133.961 74.9473C132.884 74.9473 132.327 74.5851 132.327 73.8087C132.327 72.8699 132.884 72.5303 134.252 72.5303H137.964V76.6591H137.391V76.6602ZM137.391 72.9421H134.026C133.219 72.9421 132.884 73.1678 132.884 73.8099C132.884 74.426 133.195 74.5399 134.08 74.5399H137.391V72.9421Z" fill="#201C26"/>
<path fill-rule="evenodd" clip-rule="evenodd" d="M148.512 76.6602H149.511L145.535 74.4959L149.422 72.5303H148.414L144.944 74.3018H144.02V72.5303H143.45V76.6602H144.02V74.7171H144.967L148.512 76.6602Z" fill="#201C26"/>
<path fill-rule="evenodd" clip-rule="evenodd" d="M156.909 75.2442C156.909 76.0522 156.64 76.2474 155.485 76.2474H153.08C152.009 76.2474 151.609 76.0398 151.609 75.2442V73.9263C151.609 73.1229 152.047 72.9051 153.08 72.9051H155.485C156.582 72.9051 156.909 73.1093 156.909 73.9263V75.2442ZM157.473 75.2442V73.9522C157.473 72.7516 156.818 72.4819 155.485 72.4819H153.085C151.524 72.4819 151.039 72.9039 151.039 73.9522V75.2442C151.039 76.3049 151.592 76.6604 153.085 76.6604H155.485C156.947 76.6604 157.473 76.42 157.473 75.2442Z" fill="#201C26"/>
<path fill-rule="evenodd" clip-rule="evenodd" d="M166.121 72.5303H167.344V76.6602H166.774V72.8654H166.457L163.49 76.6602H163.198L160.235 72.8654H159.914V76.6602H159.348V72.5303H160.564L163.351 76.052L166.121 72.5303Z" fill="#201C26"/>
<path fill-rule="evenodd" clip-rule="evenodd" d="M169.959 76.6602V72.9421H174.83V76.6602H175.405V72.5303H169.382V76.6602H169.959Z" fill="#201C26"/>
<path fill-rule="evenodd" clip-rule="evenodd" d="M182.818 76.6605L182.119 75.6247H178.253L177.536 76.6605H176.908L179.76 72.5317H180.625L183.473 76.6605H182.818ZM180.192 72.8262L178.555 75.2015H181.821L180.192 72.8262Z" fill="#201C26"/>
<path fill-rule="evenodd" clip-rule="evenodd" d="M191.124 76.6602V72.5303H190.558V74.321H185.682V72.5303H185.105V76.6602H185.682V74.7351H190.558V76.6602H191.124Z" fill="#201C26"/>
<path fill-rule="evenodd" clip-rule="evenodd" d="M199.101 76.6602V72.5303H197.991L193.646 76.3386H193.596V72.5303H193.034V76.6602H193.959L198.316 72.8496H198.526V76.6602H199.101Z" fill="#201C26"/>
<path fill-rule="evenodd" clip-rule="evenodd" d="M205.978 74.5403H202.66C201.775 74.5403 201.478 74.4252 201.478 73.8102C201.478 73.1693 201.791 72.9425 202.598 72.9425H205.978V74.5403ZM206.537 76.6605V72.5317H202.837C201.478 72.5317 200.907 72.8714 200.907 73.8102C200.907 74.5865 201.478 74.9488 202.553 74.9488L200.676 76.6617H201.478L203.228 74.9488H205.978V76.6617H206.537V76.6605Z" fill="#201C26"/>
<path fill-rule="evenodd" clip-rule="evenodd" d="M77.2113 82.7784C77.2113 82.7784 89.5904 82.6114 90.5822 83.2772C91.5728 83.9339 92.5624 84.6041 92.7279 85.921C92.8922 87.2457 92.0682 91.3757 88.9307 91.5438C85.7976 91.7085 82.1715 91.3757 82.1715 91.3757L82.0094 94.6852L77.0582 94.5205L77.2113 82.7784Z" fill="#201C26"/>
<path fill-rule="evenodd" clip-rule="evenodd" d="M82.3313 86.0837L82.1715 88.072C82.1715 88.072 86.1275 88.8957 86.9515 88.072C87.7767 87.2471 87.1148 85.9224 85.7987 85.9224C84.4816 85.9224 82.3313 86.0837 82.3313 86.0837Z" fill="white"/>
<path fill-rule="evenodd" clip-rule="evenodd" d="M92.729 85.9224C94.0552 84.4363 96.363 82.1186 101.634 82.447C106.915 82.7799 109.726 84.9238 109.726 87.4187C109.726 89.891 109.882 93.1972 106.748 94.1845C103.618 95.182 100.478 95.182 98.3354 94.8571C96.1896 94.5219 92.729 92.5337 92.2359 89.8921C91.7394 87.246 92.729 85.9224 92.729 85.9224Z" fill="#241C24"/>
<path fill-rule="evenodd" clip-rule="evenodd" d="M97.6813 89.0612C97.3796 86.9252 99.1606 85.5869 100.645 85.5869C102.128 85.5869 104.597 85.755 104.434 88.5681C104.273 91.3767 104.114 91.2108 102.63 91.7096C101.144 92.2049 98.1733 92.706 97.6813 89.0612Z" fill="white"/>
<path fill-rule="evenodd" clip-rule="evenodd" d="M127.367 87.4187C126.546 85.9224 124.737 83.106 121.926 82.9468C119.123 82.7798 115.326 82.447 113.513 83.1059C111.694 83.774 110.221 85.4214 109.887 86.9098C109.559 88.4026 109.219 91.71 111.37 93.1972C113.512 94.6855 116.985 95.8467 120.279 95.182C123.572 94.5219 126.709 93.1972 127.205 90.3852C125.559 90.3852 121.6 90.3852 121.6 90.3852C121.6 90.3852 120.108 92.3723 118.3 92.2053C118.3 92.2053 116.639 92.7063 115.489 91.0555C114.341 89.3934 114.502 87.9073 115.653 86.4167C116.818 84.9238 119.946 85.4203 120.278 86.0838C120.605 86.7473 121.101 87.7369 121.101 87.7369L127.367 87.4187Z" fill="#241C24"/>
<path fill-rule="evenodd" clip-rule="evenodd" d="M126.877 83.1055H131.994V87.0798H137.099V82.7783H142.384V94.6852H137.43V90.7166H132.159V94.6852H126.711L126.877 83.1055Z" fill="#241C24"/>
<path fill-rule="evenodd" clip-rule="evenodd" d="M144.038 82.7783L158.72 82.9464V85.922H149.814V87.0798H157.238V90.3848H149.479V91.88H159.047V95.0169H144.201L144.038 82.7783Z" fill="#241C24"/>
<path fill-rule="evenodd" clip-rule="evenodd" d="M166.306 82.7783H171.422C171.422 82.7783 171.095 83.6077 171.762 83.4441C172.411 83.2782 176.866 83.1044 178.191 84.7665C179.507 86.4163 180.006 88.567 178.681 90.0565C177.356 91.546 176.203 92.2049 175.387 92.2049C174.554 92.2049 171.762 92.3708 171.762 92.3708V95.0169H166.306V92.2049C166.306 92.2049 162.84 92.0391 161.686 91.7096C160.537 91.3767 158.386 90.0565 158.386 87.908C158.386 85.7562 159.542 83.9349 161.198 83.7736C162.84 83.6088 165.976 83.6088 165.976 83.6088L166.306 82.7783Z" fill="#241C24"/>
<path fill-rule="evenodd" clip-rule="evenodd" d="M166.306 86.4162L166.142 88.8953C166.142 88.8953 163.504 89.2282 163.504 88.242C163.504 87.2456 164.002 86.2526 166.306 86.4162Z" fill="white"/>
<path fill-rule="evenodd" clip-rule="evenodd" d="M171.761 86.5814L171.917 88.8969C171.917 88.8969 173.402 89.5615 174.233 88.4026C175.048 87.246 173.564 86.4167 171.761 86.5814Z" fill="white"/>
<path fill-rule="evenodd" clip-rule="evenodd" d="M182.143 86.4164V95.1818H187.42V86.4164H192.201L193.2 85.0973L191.716 83.2783H177.858C177.861 83.2783 177.195 85.9222 178.679 86.0835C180.162 86.2528 182.143 86.4164 182.143 86.4164Z" fill="#241C24"/>
<path fill-rule="evenodd" clip-rule="evenodd" d="M197.484 83.2783V86.5811C197.484 86.5811 203.759 86.2528 204.915 86.9095C206.069 87.573 207.223 88.5682 207.387 89.7192C207.551 90.8837 207.223 92.7061 206.069 93.6934C204.915 94.6853 203.599 95.3454 202.268 95.3454C200.952 95.3454 192.708 95.3454 192.708 95.3454V83.4442L197.484 83.2783Z" fill="#241C24"/>
<path fill-rule="evenodd" clip-rule="evenodd" d="M197.987 90.0568V92.0394C197.987 92.0394 200.458 92.0394 201.281 92.0394C202.102 92.0394 203.262 90.2215 201.774 89.892C200.292 89.5603 197.987 90.0568 197.987 90.0568Z" fill="white"/>
<path fill-rule="evenodd" clip-rule="evenodd" d="M9.5736 28.2092H17.991V56.8197L9.5736 49.3745V28.2092Z" fill="#241C24"/>
<path fill-rule="evenodd" clip-rule="evenodd" d="M19.6425 18.7849H27.7256V66.0816L19.6425 58.2991V18.7849Z" fill="#241C24"/>
<path fill-rule="evenodd" clip-rule="evenodd" d="M29.3782 9.3606H37.6279V54.1714H29.3782V9.3606Z" fill="#241C24"/>
<path fill-rule="evenodd" clip-rule="evenodd" d="M39.2716 -0.0649414H47.8511V44.9118H39.2716V-0.0649414Z" fill="#241C24"/>
<path fill-rule="evenodd" clip-rule="evenodd" d="M49.0061 8.85962H57.2581V54.1715H49.0061V8.85962Z" fill="#241C24"/>
<path fill-rule="evenodd" clip-rule="evenodd" d="M59.2383 18.6111H67.3214V58.1354L59.2383 66.0816V18.6111Z" fill="#241C24"/>
<path fill-rule="evenodd" clip-rule="evenodd" d="M68.8018 28.0422H77.0582V48.7156L68.8018 56.8197V28.0422Z" fill="#241C24"/>
<path fill-rule="evenodd" clip-rule="evenodd" d="M29.3782 55.1714H37.6279V96.6636H29.3782V55.1714Z" fill="#B3B31C"/>
<path fill-rule="evenodd" clip-rule="evenodd" d="M39.2716 46.241H47.3524V96.6633H39.2716V46.241Z" fill="#B3B31C"/>
<path fill-rule="evenodd" clip-rule="evenodd" d="M49.0061 55.3291H57.2581V96.6633H49.0061V55.3291Z" fill="#B3B31C"/>
</g>
<defs>
<clipPath id="clip0_4_180">
<rect width="217" height="97" fill="white"/>
</clipPath>
</defs>
</svg>
